HIERARCHY
ROOT Hips
{
	OFFSET 0.000000 0.000000 0.000000
	CHANNELS 6 Xposition Yposition Zposition Xrotation Yrotation Zrotation
	JOINT LeftUpLeg_virtual
	{
		OFFSET 0.000000 0.000000 0.000000
		CHANNELS 3 Xrotation Yrotation Zrotation
		JOINT LeftUpLeg
		{
			OFFSET 11.394100 -6.187798 -0.413800
			CHANNELS 3 Xrotation Yrotation Zrotation
			JOINT LeftLeg
			{
				OFFSET 0.430247 -32.302673 3.732800
				CHANNELS 3 Xrotation Yrotation Zrotation
				JOINT LeftFoot
				{
					OFFSET -0.430247 -48.264931 -6.423300
					CHANNELS 3 Xrotation Yrotation Zrotation
					JOINT LeftToeBase
					{
						OFFSET 4.230900 -16.068199 23.438400
						CHANNELS 3 Xrotation Yrotation Zrotation
						JOINT LeftToe_End
						{
							OFFSET 4.510700 0.695400 19.974600
							CHANNELS 3 Xrotation Yrotation Zrotation
							End Site
							{
								OFFSET 0 0 0
							}
						}
					}
				}
			}
		}
	}
	JOINT RightUpLeg_virtual
	{
		OFFSET 0.000000 0.000000 0.000000
		CHANNELS 3 Xrotation Yrotation Zrotation
		JOINT RightUpLeg
		{
			OFFSET -11.333700 -6.187798 -0.413800
			CHANNELS 3 Xrotation Yrotation Zrotation
			JOINT RightLeg
			{
				OFFSET -0.430392 -32.302628 3.733000
				CHANNELS 3 Xrotation Yrotation Zrotation
				JOINT RightFoot
				{
					OFFSET 0.430392 -48.264973 -6.423500
					CHANNELS 3 Xrotation Yrotation Zrotation
					JOINT RightToeBase
					{
						OFFSET -4.230900 -16.068199 23.438400
						CHANNELS 3 Xrotation Yrotation Zrotation
						JOINT RightToe_End
						{
							OFFSET -4.510700 0.695400 19.974600
							CHANNELS 3 Xrotation Yrotation Zrotation
							End Site
							{
								OFFSET 0 0 0
							}
						}
					}
				}
			}
		}
	}
	JOINT Spine_virtual
	{
		OFFSET 0.000000 0.000000 0.000000
		CHANNELS 3 Xrotation Yrotation Zrotation
		JOINT Spine
		{
			OFFSET -0.002400 12.777504 0.315300
			CHANNELS 3 Xrotation Yrotation Zrotation
			JOINT Spine1
			{
				OFFSET -0.002067 5.816869 0.032633
				CHANNELS 3 Xrotation Yrotation Zrotation
				JOINT Spine1_split
				{
					OFFSET -0.002067 5.816869 0.032633
					CHANNELS 3 Xrotation Yrotation Zrotation
					JOINT Spine2
					{
						OFFSET -0.002067 5.816869 0.032633
						CHANNELS 3 Xrotation Yrotation Zrotation
						JOINT Neck_virtual
						{
							OFFSET 0.000000 0.000000 0.000000
							CHANNELS 3 Xrotation Yrotation Zrotation
							JOINT Neck
							{
								OFFSET -0.003700 21.199493 -0.826900
								CHANNELS 3 Xrotation Yrotation Zrotation
								JOINT Head
								{
									OFFSET 0.000000 20.442200 4.834800
									CHANNELS 3 Xrotation Yrotation Zrotation
									JOINT HeadTop_End
									{
										OFFSET 0.000000 34.668396 4.968400
										CHANNELS 3 Xrotation Yrotation Zrotation
										End Site
										{
											OFFSET 0 0 0
										}
									}
								}
							}
						}
						JOINT LeftShoulder_virtual
						{
							OFFSET 0.000000 0.000000 0.000000
							CHANNELS 3 Xrotation Yrotation Zrotation
							JOINT LeftShoulder
							{
								OFFSET 3.288150 8.794197 -1.372250
								CHANNELS 3 Xrotation Yrotation Zrotation
								JOINT LeftShoulder_split
								{
									OFFSET 3.288150 8.794197 -1.372250
									CHANNELS 3 Xrotation Yrotation Zrotation
									JOINT LeftArm
									{
										OFFSET 11.953299 -2.279007 -0.146200
										CHANNELS 3 Xrotation Yrotation Zrotation
										JOINT LeftForeArm
										{
											OFFSET 18.448900 0.000000 0.000000
											CHANNELS 3 Xrotation Yrotation Zrotation
											JOINT LeftHand
											{
												OFFSET 29.527798 0.000000 0.000000
												CHANNELS 3 Xrotation Yrotation Zrotation
												End Site
												{
													OFFSET 0 0 0
												}
											}
										}
									}
								}
							}
						}
						JOINT RightShoulder_virtual
						{
							OFFSET 0.000000 0.000000 0.000000
							CHANNELS 3 Xrotation Yrotation Zrotation
							JOINT RightShoulder
							{
								OFFSET -3.249400 8.794197 -1.372250
								CHANNELS 3 Xrotation Yrotation Zrotation
								JOINT RightShoulder_split
								{
									OFFSET -3.249400 8.794197 -1.372250
									CHANNELS 3 Xrotation Yrotation Zrotation
									JOINT RightArm
									{
										OFFSET -11.953299 -2.279007 -0.146200
										CHANNELS 3 Xrotation Yrotation Zrotation
										JOINT RightForeArm
										{
											OFFSET -18.448900 0.000000 0.000000
											CHANNELS 3 Xrotation Yrotation Zrotation
											JOINT RightHand
											{
												OFFSET -29.527802 0.000000 0.000000
												CHANNELS 3 Xrotation Yrotation Zrotation
												End Site
												{
													OFFSET 0 0 0
												}
											}
										}
									}
								}
							}
						}
					}
				}
			}
		}
	}
}
MOTION
Frames: 4
Frame Time: 0.03333333
-0.012718 104.853790 -0.325577 0.000000 0.000000 0.000000 -3.688212 -5.328148 -3.725697 -13.795882 13.588482 12.195069 11.595741 4.535818 3.730369 4.796787 0.257454 -7.579487 -0.453593 0.567386 -2.140323 0.000000 0.000000 0.000000 -3.223188 -3.500599 -3.887397 -2.522893 -8.746917 0.444584 5.453085 -8.033709 -5.027284 4.175824 -1.372545 1.754544 -8.263966 -0.852447 -1.507803 0.000000 0.000000 0.000000 -3.798821 -4.837399 -4.272363 2.936877 0.364667 3.338143 1.732593 -0.028950 1.805701 1.111231 -0.490508 0.018447 0.000000 0.000000 0.000000 1.267250 0.453165 1.654494 6.069605 1.212443 -0.123455 -5.343076 0.820584 -0.993649 0.000000 0.000000 0.000000 1.066159 0.592300 1.445265 1.714554 -15.485815 -12.657099 -2.598321 -0.416140 -1.466719 8.706761 -20.151539 -68.119020 -1.822184 -2.626856 0.080045 0.000000 0.000000 0.000000 1.403020 0.526818 1.658084 1.866605 12.140179 15.588452 0.422840 2.666506 -0.973674 12.395315 28.207672 57.292767 0.541724 11.240723 0.821773 0.000000 0.000000 0.000000 
0.074565 104.858032 -0.292267 0.000000 0.000000 0.000000 -3.678766 -5.475642 -3.716701 -13.763679 13.527231 12.191166 11.702546 4.562568 3.690837 4.684124 0.275234 -7.623394 -0.477324 0.567050 -2.155683 0.000000 0.000000 0.000000 -3.200139 -3.588119 -3.872225 -2.492178 -8.834830 0.459159 5.364585 -7.911335 -5.068502 4.260460 -1.428454 1.749708 -8.210611 -0.913324 -1.429284 0.000000 0.000000 0.000000 -3.794097 -5.012419 -4.307153 2.952545 0.347186 3.351231 1.721288 -0.044697 1.811410 1.083212 -0.464932 0.005661 0.000000 0.000000 0.000000 1.271333 0.455294 1.653361 6.087340 1.242019 -0.090720 -5.381614 0.901976 -1.007912 0.000000 0.000000 0.000000 1.091080 0.576236 1.460575 1.705035 -15.543709 -12.658546 -2.591349 -0.521297 -1.510134 8.625321 -20.155994 -68.179037 -1.830126 -2.693919 0.084268 0.000000 0.000000 0.000000 1.395543 0.516977 1.677451 1.848336 12.166298 15.644367 0.355898 2.665674 -0.957242 12.473501 28.213923 57.193921 0.560588 11.024459 0.855990 0.000000 0.000000 0.000000 
0.158810 104.857285 -0.275265 0.000000 0.000000 0.000000 -3.708405 -5.765365 -3.732829 -13.726956 13.471488 12.258863 11.944725 4.634332 3.638710 4.478674 0.306350 -7.707160 -0.500731 0.570013 -2.185538 0.000000 0.000000 0.000000 -3.235754 -3.747900 -3.880988 -2.465325 -8.999467 0.510673 5.313609 -7.646321 -5.119280 4.194259 -1.537417 1.718750 -8.107840 -0.959315 -1.378757 0.000000 0.000000 0.000000 -3.813875 -5.304894 -4.352483 2.980732 0.336141 3.389520 1.713062 -0.065693 1.812363 1.049596 -0.441616 -0.006494 0.000000 0.000000 0.000000 1.273410 0.449382 1.647011 6.125872 1.294766 -0.062376 -5.441376 1.059159 -1.080097 0.000000 0.000000 0.000000 1.116138 0.556856 1.471232 1.689659 -15.612829 -12.668147 -2.511695 -0.594533 -1.566055 8.568743 -20.050367 -68.253520 -1.814386 -2.752956 0.089474 0.000000 0.000000 0.000000 1.380421 0.503888 1.696987 1.832279 12.260059 15.674652 0.264762 2.678795 -0.946854 12.606389 28.184806 57.053082 0.534146 10.836310 0.920923 0.000000 0.000000 0.000000 
0.226550 104.849442 -0.275803 0.000000 0.000000 0.000000 -3.776243 -6.139932 -3.762462 -13.687792 13.426065 12.379788 12.253464 4.756401 3.575390 4.219279 0.343779 -7.819483 -0.514502 0.575514 -2.217406 0.000000 0.000000 0.000000 -3.317309 -3.970976 -3.902464 -2.483806 -9.228710 0.588274 5.359400 -7.244292 -5.161255 4.064859 -1.678554 1.712644 -8.015228 -0.990405 -1.361593 0.000000 0.000000 0.000000 -3.857942 -5.680676 -4.401337 3.018916 0.332406 3.446884 1.710801 -0.085319 1.809611 1.034003 -0.439554 0.009004 0.000000 0.000000 0.000000 1.269783 0.439953 1.636911 6.173511 1.360710 -0.038280 -5.515536 1.259699 -1.186834 0.000000 0.000000 0.000000 1.140881 0.537230 1.477745 1.666675 -15.687648 -12.684080 -2.407450 -0.584893 -1.625984 8.541455 -19.819867 -68.314207 -1.786906 -2.776399 0.095011 0.000000 0.000000 0.000000 1.365435 0.488987 1.713452 1.818975 12.409441 15.664962 0.178142 2.692544 -0.938169 12.786404 28.174973 56.887232 0.483181 10.703621 0.993671 0.000000 0.000000 0.000000 
